<svg width="500" height="500" viewBox="0 0 500 500" fill="none" xmlns="http://www.w3.org/2000/svg">
<rect width="500" height="500" fill="#262F69"/>
<path fill-rule="evenodd" clip-rule="evenodd" d="M75 213.883H94.8293V194.003H75V213.883Z" fill="#EEC64D"/>
<path fill-rule="evenodd" clip-rule="evenodd" d="M98.1484 213.88H118.003V194H98.1484V213.88Z" fill="#EEC64D"/>
<path fill-rule="evenodd" clip-rule="evenodd" d="M121.312 213.88H141.166V194H121.312V213.88Z" fill="#EEC64D"/>
<path fill-rule="evenodd" clip-rule="evenodd" d="M75.0098 237.073H94.839V217.193H75.0098V237.073Z" fill="#EEC64D"/>
<path fill-rule="evenodd" clip-rule="evenodd" d="M75.0098 260.266H94.839V240.386H75.0098V260.266Z" fill="#EEC64D"/>
<path fill-rule="evenodd" clip-rule="evenodd" d="M98.1484 260.266H118.003V240.386H98.1484V260.266Z" fill="#EEC64D"/>
<path fill-rule="evenodd" clip-rule="evenodd" d="M121.312 260.266H141.166V240.386H121.312V260.266Z" fill="#EEC64D"/>
<path fill-rule="evenodd" clip-rule="evenodd" d="M75.0098 283.459H94.839V263.58H75.0098V283.459Z" fill="#EEC64D"/>
<path fill-rule="evenodd" clip-rule="evenodd" d="M75.0098 306.652H94.839V286.772H75.0098V306.652Z" fill="#EEC64D"/>
<path fill-rule="evenodd" clip-rule="evenodd" d="M151.093 306.652H170.947V194H151.093V306.652Z" fill="white"/>
<mask id="mask0" mask-type="alpha" maskUnits="userSpaceOnUse" x="283" y="194" width="67" height="113">
<path d="M349.634 194V213.88H303.308V240.386H349.634V260.266H303.308V286.772H349.634V306.652H283.454V194H349.634Z" fill="white"/>
</mask>
<g mask="url(#mask0)">
<path fill-rule="evenodd" clip-rule="evenodd" d="M283.438 306.658H349.651V193.99H283.438V306.658Z" fill="white"/>
</g>
<mask id="mask1" mask-type="alpha" maskUnits="userSpaceOnUse" x="359" y="194" width="67" height="113">
<path d="M379.416 194V286.772H425.742V306.652H359.562V194H379.416Z" fill="white"/>
</mask>
<g mask="url(#mask1)">
<path fill-rule="evenodd" clip-rule="evenodd" d="M359.53 306.657H425.793V193.989H359.53V306.657Z" fill="white"/>
</g>
<mask id="mask2" mask-type="alpha" maskUnits="userSpaceOnUse" x="179" y="194" width="97" height="113">
<path d="M207.07 194.048C207.797 194.054 208.844 194.396 209.199 194.983C215.485 205.416 221.688 215.911 228.05 226.632C229.433 224.361 230.795 222.131 232.151 219.9C237.132 211.707 242.094 203.5 247.128 195.347C247.524 194.707 248.421 194.074 249.091 194.066C257.059 193.978 265.029 194.007 272.998 194.013C273.175 194.013 273.35 194.085 273.851 194.196C273.392 194.998 273.012 195.698 272.601 196.374C262.444 213.098 252.301 229.831 242.092 246.517C241.215 247.95 241.298 248.858 242.244 250.158C254.545 267.033 265.128 285.171 274.495 304.191C274.81 304.83 275.107 305.479 275.594 306.505C274.737 306.555 274.22 306.612 273.702 306.612C265.853 306.616 258.004 306.573 250.156 306.652C248.748 306.665 248.007 306.177 247.36 304.796C243.251 296.035 239.28 287.169 233.813 279.302C231.843 276.469 229.537 273.92 227.209 271.023C226.122 272.433 225.246 273.513 224.426 274.642C217.461 284.234 211.113 294.276 206.07 305.284C205.779 305.92 204.822 306.55 204.169 306.558C196.321 306.649 188.472 306.624 180.623 306.624C180.392 306.624 180.162 306.56 179.633 306.48C179.95 305.714 180.175 305.076 180.469 304.478C189.352 286.429 200.455 270.032 211.421 253.528C214.701 248.593 214.715 250.634 211.674 245.509C201.911 229.056 192.065 212.663 182.254 196.246C181.895 195.647 181.56 195.032 181.092 194.211C181.729 194.124 182.174 194.011 182.618 194.01C190.768 194 198.919 193.982 207.07 194.048Z" fill="white"/>
</mask>
<g mask="url(#mask2)">
<path fill-rule="evenodd" clip-rule="evenodd" d="M179.602 306.656H275.646V193.988H179.602V306.656Z" fill="white"/>
</g>
</svg>
